<?xml version="1.0" standalone="no"?>
<!DOCTYPE svg PUBLIC "-//W3C//DTD SVG 20010904//EN"
 "http://www.w3.org/TR/2001/REC-SVG-20010904/DTD/svg10.dtd">
<svg version="1.0" xmlns="http://www.w3.org/2000/svg"
 width="1764.000000pt" height="1764.000000pt" viewBox="0 0 1764.000000 1764.000000"
 preserveAspectRatio="xMidYMid meet">
<metadata>
Created by potrace 1.11, written by Peter Selinger 2001-2013
</metadata>
<g transform="translate(0.000000,1764.000000) scale(0.100000,-0.100000)"
fill="#000000" stroke="none">
<path d="M5 11810 c0 -455 2 -520 15 -521 8 0 459 0 1003 -1 l987 0 0 -2994 0
-2994 793 0 794 0 0 2993 0 2992 984 2 c541 1 992 2 1001 3 16 0 17 36 17 520
l1 520 -2798 0 -2797 0 0 -520z"/>
<path d="M6492 8815 l0 -3515 2344 0 2344 0 -1 524 -1 524 -1486 0 c-818 1
-1515 1 -1549 1 l-63 1 0 2990 0 2990 -794 0 -794 0 0 -3515z"/>
<path d="M12010 8815 l0 -3516 1588 4 c873 2 1619 7 1657 10 121 10 231 21
320 32 22 2 63 7 90 10 59 7 104 14 125 20 8 2 35 7 59 10 24 4 85 15 135 26
50 11 102 23 116 25 86 17 305 86 427 135 151 60 429 215 488 272 7 7 34 30
61 52 105 87 232 232 306 350 117 187 205 436 234 665 3 25 8 59 11 75 9 61
10 442 2 510 -5 39 -12 90 -15 115 -10 82 -53 248 -90 347 -173 464 -539 773
-1112 937 -67 20 -133 38 -145 40 -25 5 -121 24 -152 30 -11 2 -40 7 -65 11
-25 4 -53 9 -63 11 -10 2 -44 6 -75 9 -31 3 -66 8 -77 10 -11 2 -25 4 -32 4
-6 1 -10 9 -9 19 2 13 17 19 65 24 34 4 78 10 99 13 20 3 55 8 77 12 73 10
263 62 362 99 526 197 833 613 890 1209 18 186 6 459 -27 621 -23 115 -53 215
-86 291 -40 93 -131 255 -153 273 -4 3 -17 18 -29 34 -75 98 -198 208 -327
292 -89 58 -257 144 -320 164 -22 7 -44 16 -50 20 -10 7 -155 57 -191 65 -10
2 -62 16 -114 30 -143 38 -386 82 -550 99 -25 3 -61 7 -80 10 -50 7 -131 15
-240 21 -52 4 -120 9 -150 12 -30 3 -709 7 -1507 10 l-1453 4 0 -3516z m2735
2451 c409 -33 679 -150 828 -360 111 -155 149 -302 142 -546 -5 -158 -8 -182
-36 -275 -75 -257 -230 -416 -502 -519 -35 -13 -90 -30 -123 -37 -32 -7 -61
-13 -64 -14 -8 -2 -93 -16 -120 -20 -96 -14 -240 -18 -718 -19 -329 -1 -546 2
-550 8 -8 13 -9 1758 -1 1776 6 13 75 15 536 14 290 -1 564 -4 608 -8z m131
-2859 c12 -3 45 -8 74 -12 29 -4 62 -9 74 -11 12 -2 37 -7 56 -10 42 -6 233
-60 275 -77 481 -194 701 -562 652 -1089 -11 -120 -56 -274 -97 -338 -6 -8
-14 -25 -19 -36 -10 -22 -86 -119 -122 -155 -40 -40 -147 -113 -219 -149 -130
-65 -278 -109 -455 -135 -60 -9 -121 -18 -135 -20 -81 -13 -307 -18 -795 -20
-302 -1 -554 0 -560 2 -7 2 -9 348 -8 1016 1 556 2 1020 2 1030 1 18 24 19
629 14 345 -2 636 -7 648 -10z"/>
</g>
</svg>
